<?xml version="1.0" encoding="utf-8"?>
<!-- Generator: Adobe Illustrator 28.4.1, SVG Export Plug-In . SVG Version: 6.00 Build 0)  -->
<svg version="1.0" id="Capa_1" xmlns="http://www.w3.org/2000/svg" xmlns:xlink="http://www.w3.org/1999/xlink" x="0px" y="0px"
	 viewBox="0 0 500 500" style="enable-background:new 0 0 500 500;" xml:space="preserve">
<style type="text/css">
	.st0{fill:none;}
	.st1{fill:#CB6600;}
	.st2{fill:url(#Unnamed_Pattern_5);}
	.st3{fill:#121212;}
	.st4{fill:#707070;}
	.st5{fill:#141414;}
</style>
<pattern  width="32.65" height="32.65" patternUnits="userSpaceOnUse" id="Unnamed_Pattern_5" viewBox="0 -32.65 32.65 32.65" style="overflow:visible;">
	<g>
		<rect y="-32.65" class="st0" width="32.65" height="32.65"/>
		<rect x="0" y="-32.65" class="st1" width="32.65" height="32.65"/>
	</g>
</pattern>
<g>
	<g>
		<g>
			<path class="st2" d="M54.15,350.55v-45.29H86.8v9.91H66.45v7.79h18.67v9.91H66.45v7.79h20.26v9.91H54.15z"/>
			<path class="st2" d="M92.9,305.25h15.31l10.53,25.65h0.53l10.53-25.65h15.3v45.29h-12.03v-26.19h-0.36l-10.08,25.83h-7.26
				l-10.08-26.01h-0.35v26.36H92.9V305.25z"/>
			<path class="st2" d="M150.93,350.55v-45.29h19.55c3.36,0,6.3,0.66,8.82,1.99c2.52,1.33,4.48,3.19,5.88,5.6
				c1.4,2.4,2.1,5.21,2.1,8.43c0,3.24-0.72,6.05-2.16,8.43c-1.44,2.37-3.45,4.2-6.04,5.48c-2.59,1.28-5.61,1.92-9.06,1.92h-11.68
				v-9.55h9.2c1.45,0,2.68-0.25,3.71-0.76c1.03-0.51,1.81-1.24,2.37-2.18c0.55-0.94,0.83-2.06,0.83-3.34c0-1.3-0.28-2.41-0.83-3.33
				c-0.56-0.92-1.34-1.63-2.37-2.12c-1.03-0.49-2.26-0.74-3.71-0.74h-4.33v35.47H150.93z"/>
			<path class="st2" d="M191.8,350.55v-45.29h19.55c3.36,0,6.3,0.61,8.82,1.84c2.52,1.22,4.48,2.98,5.88,5.28
				c1.4,2.3,2.1,5.06,2.1,8.27c0,3.24-0.72,5.98-2.16,8.21c-1.44,2.23-3.45,3.91-6.04,5.04c-2.59,1.14-5.61,1.7-9.06,1.7h-11.68
				v-9.56h9.2c1.45,0,2.68-0.18,3.71-0.54c1.03-0.36,1.81-0.94,2.37-1.74c0.55-0.8,0.83-1.84,0.83-3.12c0-1.3-0.28-2.35-0.83-3.17
				c-0.56-0.82-1.34-1.42-2.37-1.81c-1.03-0.39-2.26-0.59-3.71-0.59h-4.33v35.47H191.8z M218.34,329.76l11.32,20.79h-13.36
				l-11.06-20.79H218.34z"/>
			<path class="st2" d="M233.38,350.55v-45.29h32.65v9.91h-20.35v7.79h18.67v9.91h-18.67v7.79h20.26v9.91H233.38z"/>
			<path class="st2" d="M311.32,305.25v45.29h-10.26l-16.36-23.8h-0.27v23.8h-12.3v-45.29h10.44l16.1,23.71h0.35v-23.71H311.32z"/>
			<path class="st3" d="M334.59,350.55h-17.43v-45.29h17.25c4.66,0,8.69,0.9,12.08,2.71s6.02,4.4,7.87,7.79
				c1.85,3.38,2.78,7.43,2.78,12.15s-0.92,8.77-2.77,12.15c-1.84,3.38-4.45,5.98-7.83,7.78
				C343.17,349.64,339.19,350.55,334.59,350.55z M329.45,340.11h4.69c2.24,0,4.15-0.36,5.74-1.08c1.59-0.72,2.79-1.97,3.63-3.74
				c0.83-1.77,1.25-4.23,1.25-7.39c0-3.16-0.42-5.62-1.27-7.39c-0.85-1.77-2.09-3.01-3.71-3.74c-1.63-0.72-3.63-1.08-5.99-1.08
				h-4.33V340.11z"/>
			<path class="st3" d="M362.8,350.55v-45.29h32.65v9.91H375.1v7.79h18.67v9.91H375.1v7.79h20.26v9.91H362.8z"/>
			<path class="st3" d="M413.93,305.25l9.29,31.94h0.35l9.29-31.94h13.89l-14.95,45.29H415l-14.95-45.29H413.93z"/>
		</g>
		<g>
			<path class="st4" d="M171.95,370.42h-1.78c-0.1-0.51-0.29-0.96-0.55-1.35c-0.26-0.39-0.58-0.71-0.95-0.98
				c-0.37-0.27-0.78-0.47-1.23-0.6c-0.45-0.13-0.92-0.2-1.41-0.2c-0.89,0-1.7,0.22-2.42,0.67c-0.72,0.45-1.29,1.11-1.71,1.99
				c-0.43,0.88-0.64,1.95-0.64,3.23c0,1.27,0.21,2.35,0.64,3.23c0.42,0.88,0.99,1.54,1.71,1.99c0.72,0.45,1.53,0.68,2.42,0.68
				c0.49,0,0.96-0.07,1.41-0.2c0.45-0.13,0.86-0.33,1.23-0.6c0.37-0.27,0.69-0.59,0.95-0.98c0.26-0.39,0.44-0.84,0.55-1.35h1.78
				c-0.13,0.75-0.38,1.42-0.73,2.02c-0.36,0.59-0.8,1.1-1.32,1.51c-0.53,0.41-1.12,0.73-1.77,0.94c-0.65,0.22-1.35,0.32-2.09,0.32
				c-1.25,0-2.37-0.31-3.35-0.92c-0.97-0.61-1.75-1.48-2.31-2.61c-0.56-1.13-0.84-2.47-0.84-4.02c0-1.55,0.28-2.89,0.84-4.02
				c0.56-1.13,1.33-2,2.31-2.61c0.98-0.61,2.1-0.92,3.35-0.92c0.74,0,1.44,0.11,2.09,0.32c0.65,0.22,1.24,0.53,1.77,0.94
				c0.53,0.41,0.97,0.92,1.32,1.51C171.58,368.99,171.82,369.66,171.95,370.42z"/>
			<path class="st4" d="M193.31,373.18c0,1.55-0.28,2.89-0.84,4.02c-0.56,1.13-1.33,2-2.31,2.61c-0.97,0.61-2.09,0.92-3.35,0.92
				s-2.37-0.31-3.35-0.92c-0.97-0.61-1.75-1.48-2.31-2.61c-0.56-1.13-0.84-2.47-0.84-4.02c0-1.55,0.28-2.89,0.84-4.02
				c0.56-1.13,1.33-2,2.31-2.61c0.98-0.61,2.1-0.92,3.35-0.92s2.37,0.31,3.35,0.92c0.98,0.61,1.75,1.48,2.31,2.61
				C193.03,370.28,193.31,371.63,193.31,373.18z M191.59,373.18c0-1.27-0.21-2.35-0.64-3.23c-0.42-0.88-1-1.54-1.72-1.99
				s-1.53-0.67-2.42-0.67c-0.89,0-1.7,0.22-2.42,0.67s-1.29,1.11-1.71,1.99c-0.43,0.88-0.64,1.95-0.64,3.23
				c0,1.27,0.21,2.35,0.64,3.23c0.42,0.88,0.99,1.54,1.71,1.99c0.72,0.45,1.53,0.68,2.42,0.68c0.89,0,1.7-0.23,2.42-0.68
				c0.72-0.45,1.3-1.11,1.72-1.99C191.38,375.53,191.59,374.45,191.59,373.18z"/>
			<path class="st4" d="M202.37,365.82h2.13l5,12.21h0.17l5-12.21h2.13v14.72h-1.67v-11.18h-0.14l-4.6,11.18h-1.61l-4.6-11.18h-0.14
				v11.18h-1.67V365.82z"/>
			<path class="st4" d="M226.43,365.82h2.13l5,12.21h0.17l5-12.21h2.13v14.72h-1.67v-11.18h-0.14l-4.6,11.18h-1.61l-4.6-11.18h-0.14
				v11.18h-1.67V365.82z"/>
			<path class="st4" d="M260.15,365.82h1.78v9.74c0,1.01-0.24,1.9-0.71,2.69c-0.47,0.79-1.14,1.41-1.99,1.86
				c-0.86,0.45-1.86,0.68-3.02,0.68c-1.15,0-2.16-0.23-3.02-0.68c-0.86-0.45-1.52-1.07-1.99-1.86c-0.47-0.79-0.71-1.68-0.71-2.69
				v-9.74h1.78v9.6c0,0.72,0.16,1.36,0.48,1.91c0.31,0.56,0.77,1,1.35,1.31c0.59,0.32,1.29,0.48,2.11,0.48s1.52-0.16,2.11-0.48
				c0.59-0.32,1.04-0.76,1.35-1.31c0.31-0.56,0.47-1.2,0.47-1.91V365.82z"/>
			<path class="st4" d="M283.23,365.82v14.72h-1.72l-8.02-11.55h-0.15v11.55h-1.78v-14.72h1.72l8.05,11.58h0.14v-11.58H283.23z"/>
			<path class="st4" d="M294.65,365.82v14.72h-1.78v-14.72H294.65z"/>
			<path class="st4" d="M303.48,367.4v-1.58h11.04v1.58h-4.63v13.13h-1.78V367.4H303.48z"/>
			<path class="st4" d="M322.08,365.82h2.04l4.08,6.87h0.17l4.08-6.87h2.04l-5.32,8.65v6.06h-1.78v-6.06L322.08,365.82z"/>
		</g>
		<g>
			<path class="st5" d="M210.31,259.27h-27.72c-0.9,0-1.63-0.73-1.63-1.63v-46.87c0-4.05-1.57-7.85-4.43-10.7l-5.52-5.53l5.52-5.52
				c2.82-2.82,4.44-6.72,4.44-10.71v-46.86c0-0.9,0.73-1.63,1.63-1.63h24.63c2.98,0,5.39-2.41,5.39-5.39c0-2.98-2.41-5.39-5.39-5.39
				h-24.63c-6.84,0-12.4,5.56-12.4,12.41v46.86c0,1.15-0.46,2.27-1.28,3.09l-9.33,9.33c-2.1,2.11-2.1,5.51,0,7.62l9.34,9.34
				c0.81,0.81,1.28,1.93,1.28,3.08v46.87c0,6.84,5.56,12.4,12.4,12.4h27.72c2.98,0,5.39-2.41,5.39-5.39
				C215.7,261.68,213.29,259.27,210.31,259.27z"/>
			<path class="st5" d="M339.83,190.73l-9.33-9.33c-0.82-0.82-1.28-1.92-1.28-3.09v-46.86c0-6.84-5.56-12.41-12.41-12.41h-27.72
				c-2.98,0-5.39,2.41-5.39,5.39c0,2.98,2.41,5.39,5.39,5.39h27.72c0.9,0,1.63,0.73,1.63,1.63v46.86c0,4.05,1.58,7.85,4.43,10.71
				l5.52,5.52l-5.52,5.53c-2.86,2.86-4.43,6.66-4.43,10.71v46.86c0,0.9-0.73,1.63-1.63,1.63h-24.63c-2.98,0-5.39,2.41-5.39,5.39
				c0,2.97,2.41,5.39,5.39,5.39h24.63c6.84,0,12.41-5.56,12.41-12.4v-46.86c0-1.17,0.45-2.26,1.28-3.09l9.33-9.34
				c1.01-1.01,1.58-2.38,1.58-3.81C341.4,193.11,340.84,191.74,339.83,190.73z"/>
		</g>
	</g>
	<g>
		<path class="st2" d="M251.29,141.21c1.66,0.82,2.21,2.15,2.14,3.97c-0.11,3.15-0.01,6.32-0.05,9.47c-0.02,1.5-1.14,2.67-2.56,2.81
			c-1.48,0.15-2.81-0.7-3.19-2.1c-0.12-0.43-0.12-0.89-0.12-1.34c-0.01-2.95,0.08-5.9-0.03-8.85c-0.07-1.82,0.47-3.16,2.14-3.97
			C250.18,141.21,250.73,141.21,251.29,141.21z"/>
		<path class="st2" d="M250.41,227.41c-2.53,0-5.07,0.01-7.6,0c-2.79-0.01-4.35-1.3-4.85-4c-0.88-4.76-2.87-8.96-6.19-12.49
			c-3.47-3.7-5.83-7.96-6.98-12.92c-2.84-12.36,4.27-25.64,16.15-30.05c11.65-4.33,23.97-0.54,31.16,9.59
			c6.76,9.52,6.03,23.37-1.8,32.02c-3.22,3.56-5.87,7.37-6.97,12.11c-0.13,0.57-0.26,1.15-0.37,1.73c-0.51,2.69-2.09,4.01-4.85,4.03
			C255.54,227.42,252.98,227.41,250.41,227.41z M249.61,173.57c-4.68,0.26-8.77,1.95-12.17,5.19c-3.88,3.7-5.84,8.28-5.93,13.64
			c-0.03,1.69,1.18,2.96,2.79,3.03c1.66,0.08,2.88-0.99,3.08-2.72c0.05-0.38,0.08-0.76,0.1-1.14c0.39-5.59,4.26-10.27,9.71-11.64
			c1.2-0.3,2.47-0.32,3.69-0.53c1.66-0.27,2.66-1.63,2.48-3.28C253.18,174.4,251.74,173.42,249.61,173.57z"/>
		<path class="st2" d="M250.47,231.39c2.91,0,5.83-0.01,8.74,0c2.18,0.01,3.35,1.15,3.38,3.32c0.02,1.04,0.02,2.08-0.03,3.12
			c-0.11,2.09-1.41,3.79-3.4,4.38c-0.6,0.18-0.85,0.48-0.97,1.03c-0.15,0.64-0.3,1.28-0.5,1.91c-0.57,1.75-1.8,2.68-3.63,2.71
			c-2.39,0.03-4.79,0.03-7.18,0c-1.89-0.02-3.12-0.98-3.68-2.78c-0.08-0.26-0.17-0.53-0.21-0.8c-0.18-1.14-0.58-1.9-1.86-2.36
			c-1.7-0.61-2.65-2.09-2.77-3.94c-0.08-1.21-0.09-2.43-0.04-3.64c0.08-1.81,1.27-2.92,3.11-2.93
			C244.44,231.38,247.46,231.39,250.47,231.39z"/>
		<path class="st2" d="M207.46,195.36c-1.63,0-3.26,0.01-4.89,0c-1.95-0.02-3.31-1.27-3.29-3c0.02-1.69,1.32-2.91,3.25-2.93
			c3.29-0.03,6.59-0.04,9.88,0c1.91,0.02,3.19,1.29,3.17,2.99c-0.02,1.71-1.33,2.91-3.23,2.93
			C210.72,195.37,209.09,195.36,207.46,195.36z"/>
		<path class="st2" d="M293.47,195.36c-1.63,0-3.26,0.01-4.89,0c-1.91-0.02-3.21-1.22-3.24-2.92c-0.03-1.7,1.25-2.97,3.16-3
			c3.33-0.04,6.65-0.04,9.98,0c1.89,0.02,3.2,1.34,3.15,3.02c-0.05,1.71-1.37,2.89-3.27,2.9
			C296.73,195.37,295.1,195.36,293.47,195.36z"/>
		<path class="st2" d="M216.77,229.47c-1.58-0.09-2.48-0.59-3.03-1.64c-0.52-1.01-0.44-2.01,0.17-2.96
			c0.19-0.29,0.43-0.54,0.68-0.79c2.28-2.28,4.55-4.57,6.84-6.84c1.36-1.35,3.13-1.41,4.35-0.2c1.24,1.23,1.2,2.98-0.15,4.35
			c-2.34,2.37-4.68,4.74-7.08,7.04C217.98,228.98,217.16,229.25,216.77,229.47z"/>
		<path class="st2" d="M284.52,155.18c1.26,0.23,2.14,0.78,2.66,1.82c0.55,1.1,0.5,2.24-0.34,3.11c-2.55,2.65-5.14,5.26-7.8,7.8
			c-1.1,1.06-2.91,0.87-3.97-0.2c-1.08-1.1-1.22-2.8-0.11-3.95c2.5-2.6,5.06-5.15,7.66-7.65
			C283.11,155.64,283.88,155.48,284.52,155.18z"/>
		<path class="st2" d="M284.39,229.63c-0.68-0.38-1.47-0.64-2.01-1.15c-2.42-2.33-4.79-4.72-7.15-7.12
			c-1.31-1.33-1.34-3.05-0.15-4.27c1.2-1.24,3-1.22,4.35,0.11c2.37,2.34,4.71,4.7,7.05,7.07c0.96,0.97,1.3,2.11,0.73,3.42
			C286.76,228.77,285.65,229.47,284.39,229.63z"/>
		<path class="st2" d="M223.6,168.75c-0.68-0.36-1.48-0.6-2.02-1.11c-2.45-2.35-4.85-4.76-7.23-7.19c-1.29-1.31-1.29-3.07-0.08-4.27
			c1.18-1.17,2.98-1.15,4.28,0.12c2.4,2.36,4.77,4.75,7.14,7.14c0.94,0.95,1.23,2.07,0.72,3.34
			C225.97,167.87,224.91,168.55,223.6,168.75z"/>
	</g>
</g>
</svg>
